# This file uses centimeters as units for non-parametric coordinates.

mtllib shield_thing.mtl
g default
v 1.840082 -1.500000 0.819257
v 2.740636 -1.500000 1.220210
v 2.007392 -1.500000 2.229434
v 1.347777 -1.500000 1.496858
v 2.014221 -1.500000 0.000000
v 3.000000 -1.500000 0.000000
v 1.840082 -1.500000 0.819257
v 2.740636 1.500000 1.220210
v 2.007392 1.500000 2.229434
v 1.347777 1.500000 1.496858
v 1.840082 -1.500000 -0.819257
v 2.740636 -1.500000 -1.220209
v 3.000000 1.500000 0.000000
v 1.840082 1.500000 0.819257
v 1.840082 1.500000 -0.819257
v 2.740636 1.500000 -1.220209
v 2.014221 1.500000 0.000000
v 1.840082 1.500000 0.819257
vt 0.595838 0.196866
vt 0.642741 0.219803
vt 0.604552 0.272366
vt 0.570197 0.232158
vt 0.604907 0.154196
vt 0.656250 0.156250
vt 0.595838 0.196866
vt 0.591667 0.312500
vt 0.591667 0.688440
vt 0.575000 0.688440
vt 0.575000 0.312500
vt 0.604552 0.727634
vt 0.570197 0.763735
vt 0.595838 0.111527
vt 0.642741 0.092697
vt 0.608333 0.312500
vt 0.608333 0.688440
vt 0.642741 0.780197
vt 0.595838 0.799027
vt 0.595838 0.884366
vt 0.642741 0.907303
vt 0.625000 0.312500
vt 0.625000 0.688440
vt 0.656250 0.843750
vt 0.604907 0.841696
vt 0.595838 0.799027
vt 0.591667 0.312500
vt 0.591667 0.312500
vt 0.575000 0.312500
vt 0.575000 0.671539
vt 0.591667 0.671539
vt 0.591667 0.671539
vt 0.608333 0.312500
vt 0.608333 0.671539
vt 0.625000 0.312500
vt 0.625000 0.671539
vn 0.000000 -1.000000 0.000000
vn 0.000000 -1.000000 -0.000000
vn 0.000000 -1.000000 0.000000
vn 0.000000 -1.000000 0.000000
vn 0.000000 -1.000000 -0.000000
vn 0.000000 -1.000000 -0.000000
vn 0.000000 -0.000000 -0.000000
vn 0.913545 0.000000 0.406737
vn 0.913545 0.000000 0.406737
vn 0.809017 0.000000 0.587785
vn 0.809017 0.000000 0.587785
vn -0.743145 0.000000 0.669131
vn -0.743145 0.000000 0.669131
vn -0.743145 0.000000 0.669131
vn -0.743145 0.000000 0.669131
vn 0.000000 -1.000000 0.000000
vn 0.000000 -1.000000 0.000000
vn 1.000000 0.000000 -0.000000
vn 1.000000 0.000000 -0.000000
vn 0.000000 1.000000 0.000000
vn 0.000000 1.000000 0.000000
vn 0.000000 1.000000 0.000000
vn 0.000000 1.000000 0.000000
vn -0.406736 0.000000 -0.913546
vn -0.406736 0.000000 -0.913546
vn -0.406736 0.000000 -0.913546
vn -0.406736 0.000000 -0.913546
vn 0.978148 0.000000 -0.207912
vn 0.978148 0.000000 -0.207912
vn 0.000000 1.000000 0.000000
vn 0.000000 1.000000 0.000000
vn 0.000000 0.000000 0.000000
vn 0.000000 1.000000 0.000000
vn 0.000000 1.000000 0.000000
vn -0.978148 0.000000 -0.207912
vn -0.000000 0.000000 -0.000000
vn -0.809017 0.000000 -0.587785
vn -0.809017 0.000000 -0.587785
vn -0.000000 0.000000 -0.000000
vn -0.978148 0.000000 -0.207912
vn -1.000000 0.000000 0.000000
vn -1.000000 0.000000 0.000000
vn -0.978147 0.000000 0.207912
vn -0.978147 0.000000 0.207912
s 1
g pCylinder3
usemtl initialShadingGroup
f 1/1/1 2/2/2 3/3/3 4/4/4
f 5/5/5 6/6/6 2/2/2 1/1/1 7/7/7
s 2
f 2/8/8 8/9/9 9/10/10 3/11/11
s off
f 4/4/12 3/3/13 9/12/14 10/13/15
s 1
f 11/14/16 12/15/17 6/6/6 5/5/5
s 2
f 6/16/18 13/17/19 8/9/9 2/8/8
s 3
f 10/13/20 9/12/21 8/18/22 14/19/23
s off
f 15/20/24 16/21/25 12/15/26 11/14/27
s 2
f 12/22/28 16/23/29 13/17/19 6/16/18
s 3
f 13/24/30 17/25/31 18/26/32 14/19/23 8/18/22
f 17/25/31 13/24/30 16/21/33 15/20/34
s 4
f 7/27/35 1/28/36 4/29/37 10/30/38 14/31/39 18/32/40
f 5/33/41 7/27/35 18/32/40 17/34/42
f 11/35/43 5/33/41 17/34/42 15/36/44
